<?xml version="1.0" encoding="UTF-8" standalone="no"?>
<!-- Created with Inkscape (http://www.inkscape.org/) -->

<svg
   xmlns:dc="http://purl.org/dc/elements/1.1/"
   xmlns:cc="http://creativecommons.org/ns#"
   xmlns:rdf="http://www.w3.org/1999/02/22-rdf-syntax-ns#"
   xmlns:svg="http://www.w3.org/2000/svg"
   xmlns="http://www.w3.org/2000/svg"
   xmlns:xlink="http://www.w3.org/1999/xlink"
   xmlns:sodipodi="http://sodipodi.sourceforge.net/DTD/sodipodi-0.dtd"
   xmlns:inkscape="http://www.inkscape.org/namespaces/inkscape"
   width="48"
   height="48"
   id="svg5524"
   version="1.1"
   inkscape:version="0.47 r22583"
   sodipodi:docname="New document 5">
  <defs
     id="defs5526">
    <inkscape:perspective
       sodipodi:type="inkscape:persp3d"
       inkscape:vp_x="0 : 526.18109 : 1"
       inkscape:vp_y="0 : 1000 : 0"
       inkscape:vp_z="744.09448 : 526.18109 : 1"
       inkscape:persp3d-origin="372.04724 : 350.78739 : 1"
       id="perspective5532" />
    <inkscape:perspective
       id="perspective5392"
       inkscape:persp3d-origin="0.5 : 0.33333333 : 1"
       inkscape:vp_z="1 : 0.5 : 1"
       inkscape:vp_y="0 : 1000 : 0"
       inkscape:vp_x="0 : 0.5 : 1"
       sodipodi:type="inkscape:persp3d" />
    <radialGradient
       inkscape:collect="always"
       xlink:href="#linearGradient8987-1"
       id="radialGradient4889"
       gradientUnits="userSpaceOnUse"
       gradientTransform="matrix(2.2696808,0,0,2.5886157,21.557306,84.366017)"
       cx="320.48438"
       cy="55.027756"
       fx="320.48438"
       fy="55.027756"
       r="16.234375" />
    <linearGradient
       inkscape:collect="always"
       id="linearGradient8987-1">
      <stop
         style="stop-color:#ffffff;stop-opacity:1;"
         offset="0"
         id="stop8989-4" />
      <stop
         style="stop-color:#ffffff;stop-opacity:0;"
         offset="1"
         id="stop8991-2" />
    </linearGradient>
    <linearGradient
       inkscape:collect="always"
       xlink:href="#linearGradient5240"
       id="linearGradient5218"
       gradientUnits="userSpaceOnUse"
       gradientTransform="matrix(0.84508549,0,0,0.84944843,478.58185,183.52201)"
       x1="313.21677"
       y1="83.391716"
       x2="326.33179"
       y2="62.562637" />
    <linearGradient
       id="linearGradient5240">
      <stop
         id="stop5242"
         offset="0"
         style="stop-color:#fd6161;stop-opacity:1;" />
      <stop
         id="stop5244"
         offset="1"
         style="stop-color:#fec5c5;stop-opacity:1;" />
    </linearGradient>
    <linearGradient
       inkscape:collect="always"
       xlink:href="#linearGradient5246"
       id="linearGradient5221"
       gradientUnits="userSpaceOnUse"
       gradientTransform="matrix(0.84508549,0,0,0.84944843,478.58185,183.52201)"
       x1="313.21677"
       y1="83.391716"
       x2="326.33179"
       y2="62.562637" />
    <linearGradient
       id="linearGradient5246">
      <stop
         id="stop5248"
         offset="0"
         style="stop-color:#fd6161;stop-opacity:1;" />
      <stop
         id="stop5250"
         offset="1"
         style="stop-color:#fec5c5;stop-opacity:1;" />
    </linearGradient>
    <linearGradient
       gradientTransform="translate(428.57144,173.6479)"
       inkscape:collect="always"
       xlink:href="#linearGradient5274"
       id="linearGradient5224"
       gradientUnits="userSpaceOnUse"
       x1="310.2431"
       y1="66.91993"
       x2="317.93289"
       y2="102.56467" />
    <linearGradient
       id="linearGradient5274">
      <stop
         id="stop5276"
         offset="0"
         style="stop-color:#feb3b3;stop-opacity:1;" />
      <stop
         id="stop5278"
         offset="1"
         style="stop-color:#fc3e3e;stop-opacity:0;" />
    </linearGradient>
    <linearGradient
       inkscape:collect="always"
       xlink:href="#linearGradient4300"
       id="linearGradient5264"
       gradientUnits="userSpaceOnUse"
       gradientTransform="matrix(0.84508549,0,0,0.84944843,478.58185,183.52201)"
       x1="313.21677"
       y1="83.391716"
       x2="326.33179"
       y2="62.562637" />
    <linearGradient
       id="linearGradient4300">
      <stop
         style="stop-color:#fdbe61;stop-opacity:1;"
         offset="0"
         id="stop4302" />
      <stop
         style="stop-color:#fee7c5;stop-opacity:1"
         offset="1"
         id="stop4304" />
    </linearGradient>
    <linearGradient
       gradientTransform="translate(428.57144,173.6479)"
       inkscape:collect="always"
       xlink:href="#linearGradient5268"
       id="linearGradient5266"
       gradientUnits="userSpaceOnUse"
       x1="322.73212"
       y1="75.205376"
       x2="328.88287"
       y2="60.532906" />
    <linearGradient
       id="linearGradient5268">
      <stop
         id="stop5270"
         offset="0"
         style="stop-color:#ce0000;stop-opacity:1;" />
      <stop
         id="stop5272"
         offset="1"
         style="stop-color:#f50000;stop-opacity:1;" />
    </linearGradient>
    <filter
       color-interpolation-filters="sRGB"
       inkscape:collect="always"
       id="filter4318">
      <feGaussianBlur
         inkscape:collect="always"
         stdDeviation="0.37479169"
         id="feGaussianBlur4320" />
    </filter>
    <linearGradient
       inkscape:collect="always"
       xlink:href="#linearGradient5292"
       id="linearGradient5298"
       gradientUnits="userSpaceOnUse"
       x1="319.44705"
       y1="84.263908"
       x2="319.07645"
       y2="61.901653" />
    <linearGradient
       id="linearGradient5292">
      <stop
         id="stop5294"
         offset="0"
         style="stop-color:#ce0000;stop-opacity:1;" />
      <stop
         id="stop5296"
         offset="1"
         style="stop-color:#f50000;stop-opacity:1;" />
    </linearGradient>
    <filter
       color-interpolation-filters="sRGB"
       inkscape:collect="always"
       id="filter4270"
       x="-0.079021491"
       width="1.158043"
       y="-0.12227108"
       height="1.2445422">
      <feGaussianBlur
         inkscape:collect="always"
         stdDeviation="0.91786982"
         id="feGaussianBlur4272" />
    </filter>
    <linearGradient
       inkscape:collect="always"
       xlink:href="#linearGradient5292"
       id="linearGradient5428"
       gradientUnits="userSpaceOnUse"
       x1="319.44705"
       y1="84.263908"
       x2="319.07645"
       y2="61.901653" />
    <linearGradient
       id="linearGradient5430">
      <stop
         id="stop5432"
         offset="0"
         style="stop-color:#ce0000;stop-opacity:1;" />
      <stop
         id="stop5434"
         offset="1"
         style="stop-color:#f50000;stop-opacity:1;" />
    </linearGradient>
    <linearGradient
       inkscape:collect="always"
       xlink:href="#linearGradient5292"
       id="linearGradient5436"
       gradientUnits="userSpaceOnUse"
       x1="319.44705"
       y1="84.263908"
       x2="319.07645"
       y2="61.901653" />
    <linearGradient
       id="linearGradient5438">
      <stop
         id="stop5440"
         offset="0"
         style="stop-color:#ce0000;stop-opacity:1;" />
      <stop
         id="stop5442"
         offset="1"
         style="stop-color:#f50000;stop-opacity:1;" />
    </linearGradient>
    <linearGradient
       inkscape:collect="always"
       xlink:href="#linearGradient5292"
       id="linearGradient5444"
       gradientUnits="userSpaceOnUse"
       x1="319.44705"
       y1="84.263908"
       x2="319.07645"
       y2="61.901653" />
    <linearGradient
       id="linearGradient5446">
      <stop
         id="stop5448"
         offset="0"
         style="stop-color:#ce0000;stop-opacity:1;" />
      <stop
         id="stop5450"
         offset="1"
         style="stop-color:#f50000;stop-opacity:1;" />
    </linearGradient>
    <linearGradient
       inkscape:collect="always"
       xlink:href="#linearGradient5292"
       id="linearGradient5452"
       gradientUnits="userSpaceOnUse"
       x1="319.44705"
       y1="84.263908"
       x2="319.07645"
       y2="61.901653" />
    <linearGradient
       id="linearGradient5454">
      <stop
         id="stop5456"
         offset="0"
         style="stop-color:#ce0000;stop-opacity:1;" />
      <stop
         id="stop5458"
         offset="1"
         style="stop-color:#f50000;stop-opacity:1;" />
    </linearGradient>
    <linearGradient
       inkscape:collect="always"
       xlink:href="#linearGradient5292"
       id="linearGradient5460"
       gradientUnits="userSpaceOnUse"
       x1="319.44705"
       y1="84.263908"
       x2="319.07645"
       y2="61.901653" />
    <linearGradient
       id="linearGradient5462">
      <stop
         id="stop5464"
         offset="0"
         style="stop-color:#ce0000;stop-opacity:1;" />
      <stop
         id="stop5466"
         offset="1"
         style="stop-color:#f50000;stop-opacity:1;" />
    </linearGradient>
    <linearGradient
       inkscape:collect="always"
       xlink:href="#linearGradient5292"
       id="linearGradient5468"
       gradientUnits="userSpaceOnUse"
       x1="319.44705"
       y1="84.263908"
       x2="319.07645"
       y2="61.901653" />
    <linearGradient
       id="linearGradient5470">
      <stop
         id="stop5472"
         offset="0"
         style="stop-color:#ce0000;stop-opacity:1;" />
      <stop
         id="stop5474"
         offset="1"
         style="stop-color:#f50000;stop-opacity:1;" />
    </linearGradient>
    <radialGradient
       inkscape:collect="always"
       xlink:href="#linearGradient8972-43"
       id="radialGradient4837"
       gradientUnits="userSpaceOnUse"
       gradientTransform="matrix(1.0541479,0,0,2.7641865,-17.53606,-127.10337)"
       cx="323.85492"
       cy="72.046448"
       fx="323.85492"
       fy="72.046448"
       r="15.419154" />
    <linearGradient
       inkscape:collect="always"
       id="linearGradient8972-43">
      <stop
         style="stop-color:#ffffff;stop-opacity:1;"
         offset="0"
         id="stop8974-2" />
      <stop
         style="stop-color:#ffffff;stop-opacity:0;"
         offset="1"
         id="stop8976-03" />
    </linearGradient>
    <radialGradient
       inkscape:collect="always"
       xlink:href="#linearGradient6915-7"
       id="radialGradient4835"
       gradientUnits="userSpaceOnUse"
       gradientTransform="matrix(1.1869922,0,0,0.8727603,86.896626,-45.532075)"
       cx="-464.70734"
       cy="-357.84525"
       fx="-464.70734"
       fy="-357.84525"
       r="63.512196" />
    <linearGradient
       id="linearGradient6915-7">
      <stop
         style="stop-color:#878787;stop-opacity:1;"
         offset="0"
         id="stop6917-0" />
      <stop
         style="stop-color:#454545;stop-opacity:1;"
         offset="1"
         id="stop6919-1" />
    </linearGradient>
    <radialGradient
       inkscape:collect="always"
       xlink:href="#linearGradient6983-4"
       id="radialGradient4833"
       gradientUnits="userSpaceOnUse"
       gradientTransform="matrix(0.9288572,2.6280209e-6,-8.1854474e-7,0.3017001,22.656541,62.141708)"
       cx="318.03488"
       cy="90.563477"
       fx="318.03488"
       fy="90.563477"
       r="18.605747" />
    <linearGradient
       inkscape:collect="always"
       id="linearGradient6983-4">
      <stop
         style="stop-color:#2e3436;stop-opacity:1;"
         offset="0"
         id="stop6985-8" />
      <stop
         style="stop-color:#2e3436;stop-opacity:0;"
         offset="1"
         id="stop6987-9" />
    </linearGradient>
    <filter
       color-interpolation-filters="sRGB"
       inkscape:collect="always"
       id="filter7079-2"
       x="-0.084445536"
       width="1.1688911"
       y="-0.25950053"
       height="1.519001">
      <feGaussianBlur
         inkscape:collect="always"
         stdDeviation="1.3093102"
         id="feGaussianBlur7081-4" />
    </filter>
    <linearGradient
       y2="61.901653"
       x2="319.07645"
       y1="84.263908"
       x1="319.44705"
       gradientUnits="userSpaceOnUse"
       id="linearGradient5512"
       xlink:href="#linearGradient5292"
       inkscape:collect="always" />
    <linearGradient
       y2="61.901653"
       x2="319.07645"
       y1="84.263908"
       x1="319.44705"
       gradientUnits="userSpaceOnUse"
       id="linearGradient5514"
       xlink:href="#linearGradient5292"
       inkscape:collect="always" />
    <linearGradient
       y2="61.901653"
       x2="319.07645"
       y1="84.263908"
       x1="319.44705"
       gradientUnits="userSpaceOnUse"
       id="linearGradient5516"
       xlink:href="#linearGradient5292"
       inkscape:collect="always" />
    <linearGradient
       y2="61.901653"
       x2="319.07645"
       y1="84.263908"
       x1="319.44705"
       gradientUnits="userSpaceOnUse"
       id="linearGradient5518"
       xlink:href="#linearGradient5292"
       inkscape:collect="always" />
    <linearGradient
       y2="61.901653"
       x2="319.07645"
       y1="84.263908"
       x1="319.44705"
       gradientUnits="userSpaceOnUse"
       id="linearGradient5520"
       xlink:href="#linearGradient5292"
       inkscape:collect="always" />
    <linearGradient
       y2="61.901653"
       x2="319.07645"
       y1="84.263908"
       x1="319.44705"
       gradientUnits="userSpaceOnUse"
       id="linearGradient5522"
       xlink:href="#linearGradient5292"
       inkscape:collect="always" />
  </defs>
  <sodipodi:namedview
     id="base"
     pagecolor="#ffffff"
     bordercolor="#666666"
     borderopacity="1.0"
     inkscape:pageopacity="0.0"
     inkscape:pageshadow="2"
     inkscape:zoom="1"
     inkscape:cx="-334.41912"
     inkscape:cy="155.47872"
     inkscape:document-units="px"
     inkscape:current-layer="layer1"
     showgrid="false"
     inkscape:window-width="1400"
     inkscape:window-height="975"
     inkscape:window-x="0"
     inkscape:window-y="25"
     inkscape:window-maximized="1" />
  <metadata
     id="metadata5529">
    <rdf:RDF>
      <cc:Work
         rdf:about="">
        <dc:format>image/svg+xml</dc:format>
        <dc:type
           rdf:resource="http://purl.org/dc/dcmitype/StillImage" />
        <dc:title></dc:title>
      </cc:Work>
    </rdf:RDF>
  </metadata>
  <g
     inkscape:label="Layer 1"
     inkscape:groupmode="layer"
     id="layer1"
     transform="translate(-724.57141,-222.6479)">
    <path
       inkscape:export-ydpi="90"
       inkscape:export-xdpi="90"
       inkscape:export-filename="/home/duffy/Desktop/comp.png"
       transform="matrix(1.1824306,0,0,0.5985401,372.4811,211.93227)"
       d="m 336.67121,88.88443 c 0,3.343864 -8.33008,6.054602 -18.60575,6.054602 -10.27567,0 -18.60575,-2.710738 -18.60575,-6.054602 0,-3.343864 8.33008,-6.054602 18.60575,-6.054602 10.27567,0 18.60575,2.710738 18.60575,6.054602 z"
       sodipodi:ry="6.0546017"
       sodipodi:rx="18.605747"
       sodipodi:cy="88.88443"
       sodipodi:cx="318.06546"
       id="path5027"
       style="opacity:0.78341011;fill:url(#radialGradient4833);fill-opacity:1;stroke:none;display:inline;filter:url(#filter7079-2);enable-background:new"
       sodipodi:type="arc" />
    <path
       inkscape:export-ydpi="90"
       inkscape:export-xdpi="90"
       inkscape:export-filename="/home/duffy/Desktop/comp.png"
       transform="matrix(0.3306452,0,0,0.3306451,901.66017,378.24466)"
       d="m -401,-398 c 0,34.24165 -27.75835,62 -62,62 -34.24165,0 -62,-27.75835 -62,-62 0,-34.24165 27.75835,-62 62,-62 34.24165,0 62,27.75835 62,62 z"
       sodipodi:ry="62"
       sodipodi:rx="62"
       sodipodi:cy="-398"
       sodipodi:cx="-463"
       id="path5029"
       style="fill:url(#radialGradient4835);fill-opacity:1;stroke:#484848;stroke-width:3.02439022;stroke-linecap:round;stroke-linejoin:miter;stroke-miterlimit:4;stroke-opacity:1;stroke-dasharray:none;stroke-dashoffset:0;display:inline;enable-background:new"
       sodipodi:type="arc" />
    <path
       inkscape:export-ydpi="90"
       inkscape:export-xdpi="90"
       inkscape:export-filename="/home/duffy/Desktop/comp.png"
       sodipodi:type="arc"
       style="opacity:0.84615383;fill:none;stroke:url(#radialGradient4837);stroke-width:0.78626961;stroke-linecap:round;stroke-linejoin:miter;stroke-miterlimit:4;stroke-opacity:1;stroke-dasharray:none;stroke-dashoffset:0;display:inline;enable-background:new"
       id="path5031"
       sodipodi:cx="323.85492"
       sodipodi:cy="72.046448"
       sodipodi:rx="15.026019"
       sodipodi:ry="15.644737"
       d="m 338.88094,72.046448 c 0,8.64035 -6.72738,15.644737 -15.02602,15.644737 -8.29864,0 -15.02602,-7.004387 -15.02602,-15.644737 0,-8.64035 6.72738,-15.644737 15.02602,-15.644737 8.29864,0 15.02602,7.004387 15.02602,15.644737 z"
       transform="matrix(1.2977488,0,0,1.2464255,328.28909,156.84736)" />
    <g
       transform="translate(428.57144,173.6479)"
       id="g5041"
       style="stroke:url(#linearGradient5298);stroke-width:5;stroke-miterlimit:4;stroke-dasharray:none;display:inline;filter:url(#filter4270);enable-background:new">
      <g
         id="g5043"
         style="stroke:url(#linearGradient5520);stroke-width:5;stroke-miterlimit:4;stroke-dasharray:none">
        <path
           id="path5045"
           d="m 306.5,67.5 0,4 1,1 0,4.75"
           style="fill:none;stroke:url(#linearGradient5512);stroke-width:5;stroke-linecap:butt;stroke-linejoin:miter;stroke-miterlimit:4;stroke-opacity:1;stroke-dasharray:none"
           sodipodi:nodetypes="cccc" />
        <path
           sodipodi:nodetypes="cccccccccccccccssccccccccccc"
           id="path5047"
           d="m 307.5625,72.5 1.9375,0 0,-3.3125 0.78125,-0.78125 1.21875,0 1.09106,-1.889764 10.78394,0 1.125,1.054257 0,1.054257 1.0102,0.875 1.9898,0 0,2 2,0 0,-2 2.5625,0 c 0,0 1.375,3.4375 1.3125,5.125 -0.0625,1.6875 -0.48873,5.875 -1.1875,5.875 l -2.6875,0 0,-1.9375 -3.45841,0 0,1.375 -2.01532,1.578966 -3.85688,0 -3.85689,0 -3.2451,-4.021364 -2.9424,0.0625 -0.6538,-0.591301 0,-4.341301"
           style="fill:none;stroke:url(#linearGradient5514);stroke-width:5;stroke-linecap:butt;stroke-linejoin:miter;stroke-miterlimit:4;stroke-opacity:1;stroke-dasharray:none" />
        <path
           id="path5049"
           d="m 313.99996,63.500043 8.00018,0"
           style="fill:#edd400;fill-opacity:1;stroke:url(#linearGradient5516);stroke-width:5;stroke-linecap:butt;stroke-linejoin:miter;stroke-miterlimit:4;stroke-opacity:1;stroke-dasharray:none;display:inline;enable-background:new" />
        <rect
           y="64"
           x="316"
           height="2"
           width="4"
           id="rect5051"
           style="fill:#fcaf3e;fill-opacity:1;stroke:url(#linearGradient5518);stroke-width:5;stroke-miterlimit:4;stroke-dasharray:none" />
      </g>
      <path
         style="fill:none;stroke:url(#linearGradient5522);stroke-width:5;stroke-linecap:butt;stroke-linejoin:miter;stroke-miterlimit:4;stroke-opacity:1;stroke-dasharray:none"
         d="m 305.5,67.468749 0,4.375 1.90625,1.953125"
         id="path5053"
         sodipodi:nodetypes="ccc" />
    </g>
    <path
       sodipodi:nodetypes="ccccccsccccccccc"
       id="path5055"
       d="m 753.17881,245.5642 -5.39779,3.39478 0.80765,-3.39478 c 0.15208,-0.0715 1.35949,0.0715 1.45455,0 l 1.78693,-3.33855 -0.95379,-0.0238 c 0,0 -0.30014,-0.0175 -0.36119,-0.28389 -0.0775,-0.33801 -0.0339,-0.50614 0.21314,-0.81588 l 3.61019,-6.14308 4.42863,0 -5.52591,5.08836 3.25421,0.004 -5.37721,5.51257 2.06059,0 0,0 0,0 z"
       style="fill:url(#linearGradient5264);fill-opacity:1;stroke:url(#linearGradient5266);stroke-width:3;stroke-miterlimit:4;stroke-opacity:1;stroke-dasharray:none;display:inline;filter:url(#filter4318);enable-background:new" />
    <g
       style="display:inline;enable-background:new"
       id="g5285"
       transform="translate(428.57144,193.6479)">
      <g
         transform="translate(0,-20)"
         style="stroke:#fc3e3e;stroke-width:2;stroke-miterlimit:4;stroke-opacity:1;stroke-dasharray:none"
         id="g5059">
        <path
           style="fill:none;stroke:#fc3e3e;stroke-width:2;stroke-linecap:butt;stroke-linejoin:miter;stroke-miterlimit:4;stroke-opacity:1;stroke-dasharray:none"
           d="m 305.5625,72.5 3.9375,0 0,-3.3125 0.78125,-0.78125 1.21875,0 1.09106,-1.889764 10.78394,0 1.125,1.054257 0,1.054257 1.0102,0.875 1.9898,0 0,2 2,0 0,-2 2.5625,0 c 0,0 1.375,3.4375 1.3125,5.125 -0.0625,1.6875 -0.48873,5.875 -1.1875,5.875 l -2.6875,0 0,-1.9375 -3.45841,0 0,1.375 -2.01532,1.578966 -3.85688,0 -3.85689,0 -3.2451,-4.021364 -2.9424,0.0625 -0.6538,-0.591301 0,-4.341301"
           id="path5061"
           sodipodi:nodetypes="cccccccccccccccssccccccccccc" />
        <path
           style="fill:#edd400;fill-opacity:1;stroke:#fc3e3e;stroke-width:2;stroke-linecap:butt;stroke-linejoin:miter;stroke-miterlimit:4;stroke-opacity:1;stroke-dasharray:none;display:inline;enable-background:new"
           d="m 313.99996,63.500043 8.00018,0"
           id="path5063" />
        <rect
           style="fill:#fcaf3e;fill-opacity:1;stroke:#fc3e3e;stroke-width:2;stroke-miterlimit:4;stroke-opacity:1;stroke-dasharray:none"
           id="rect5065"
           width="4"
           height="2"
           x="316"
           y="64" />
      </g>
      <path
         id="path5067"
         d="m 304.5,47.468749 0,4.375 1,2.969591 0,2.182859"
         style="fill:none;stroke:#fc3e3e;stroke-width:3;stroke-linecap:butt;stroke-linejoin:miter;stroke-miterlimit:4;stroke-opacity:1;stroke-dasharray:none"
         sodipodi:nodetypes="cccc" />
    </g>
    <path
       sodipodi:nodetypes="ccccccccccccccccccccccccccccccccccccccccccccccccccccccssssscccccccccccccccccccccccccccccccccccccccsssscccccccccccccccccccccccccccc"
       id="path5069"
       d="m 742.57144,236.6479 0,1 2,0 0,2.0625 4,0 0,-2.0625 2,0 0,-1 -8,0 z m -1.6875,3.03125 -0.15625,0.25 -0.9375,1.625 -0.9375,0 -0.21875,0 -0.125,0.15625 -0.78125,0.78125 -0.15625,0.125 0,0.21875 0,2.8125 -1.3125,0 -2.63204,0.0196 -0.0719,-4.51961 0,-0.0312 -1,0 0,4.375 0,0.21875 0.15625,0.125 0.87148,1.90625 0,2.89108 1,0 0,-3.98483 2.95749,0 0,3.96875 0,0.21875 0.15625,0.15625 0.65625,0.59375 0.15625,0.125 0.1875,0 2.71875,-0.0625 3.125,3.89147 0.15625,0.125 0.1875,0 7.6849,0 0.0625,0 0.0625,-0.0312 2.53033,-1.57897 0.375,-0.0937 0,-0.375 0,-0.9375 1.97227,0 0,1.5 0,0.5 0.5,0 2.6875,0 c 0.33704,0 0.53478,-0.22432 0.65625,-0.40625 0.12147,-0.18193 0.20366,-0.39149 0.28125,-0.625 0.15517,-0.46702 0.27182,-1.04413 0.375,-1.6875 0.20635,-1.28673 0.34276,-2.75453 0.375,-3.625 0.0367,-0.99182 -0.31403,-2.28467 -0.65625,-3.375 -0.34222,-1.09033 -0.6875,-1.96875 -0.6875,-1.96875 l -0.125,-0.3125 -0.34375,0 -2.5625,0 -0.5,0 0,0.5 0,1.5 -1,0 0,-1.5 0,-0.5 -0.5,0 -1.8125,0 -0.6875,-0.59375 0,-0.84375 0,-0.21875 -0.15625,-0.125 -1.125,-1.0625 -0.15625,-0.125 -0.1875,0 -10.78125,0 -0.28125,0 0,-1e-4 z m 0.5625,1 10.3125,0 0.8125,0.75 0,0.84375 0,0.21875 0.1875,0.15625 1,0.875 0.125,0.125 0.1875,0 1.5,0 0,1.5 0,0.5 0.5,0 2,0 0.5,0 0,-0.5 0,-1.5 1.6875,0 c 0.0839,0.2147 0.28615,0.71329 0.5625,1.59375 0.32965,1.05029 0.65077,2.30432 0.625,3 -0.0303,0.81702 -0.14667,2.30235 -0.34375,3.53125 -0.0985,0.61444 -0.22052,1.16038 -0.34375,1.53125 -0.0572,0.17226 -0.1191,0.2829 -0.15625,0.34375 l -2.03125,0 0,-1.4375 0,-0.5 -0.5,0 -2.97227,0 -0.5,0 0,0.5 0,1 -2.03033,1.45397 -0.0312,0 -7.4349,0 -3.125,-3.89147 -0.1563,-0.125 -0.1875,0 -2.75,0.0625 -0.34375,-0.3125 0,-3.75 0.0312,0 0,-0.5 0,-3.125 0.46875,-0.46875 1.03125,0 0.28125,0 0.15625,-0.25 0.9375,-1.625 5e-5,0 z"
       style="font-size:medium;font-style:normal;font-variant:normal;font-weight:normal;font-stretch:normal;text-indent:0;text-align:start;text-decoration:none;line-height:normal;letter-spacing:normal;word-spacing:normal;text-transform:none;direction:ltr;block-progression:tb;writing-mode:lr-tb;text-anchor:start;color:#000000;fill:url(#linearGradient5224);fill-opacity:1;stroke:none;stroke-width:1px;marker:none;visibility:visible;display:inline;overflow:visible;enable-background:accumulate;font-family:Bitstream Vera Sans;-inkscape-font-specification:Bitstream Vera Sans" />
    <path
       style="fill:url(#linearGradient5221);fill-opacity:1;stroke:#fc5454;stroke-width:1;stroke-miterlimit:4;stroke-opacity:1;stroke-dasharray:none;display:inline;enable-background:new"
       d="m 753.17881,245.5642 -5.39779,3.39478 0.80765,-3.39478 c 0.15208,-0.0715 1.35949,0.0715 1.45455,0 l 1.78693,-3.33855 -0.95379,-0.0238 c 0,0 -0.30014,-0.0175 -0.36119,-0.28389 -0.0775,-0.33801 -0.0339,-0.50614 0.21314,-0.81588 l 3.61019,-6.14308 4.42863,0 -5.52591,5.08836 3.25421,0.004 -5.37721,5.51257 2.06059,0 0,0 0,0 z"
       id="path5071"
       sodipodi:nodetypes="ccccccsccccccccc" />
    <path
       sodipodi:nodetypes="ccccccsccccccccc"
       id="path5073"
       d="m 753.17881,245.5642 -5.39779,3.39478 0.80765,-3.39478 c 0.15208,-0.0715 1.3595,0.0715 1.45455,0 l 1.78693,-3.33855 -0.95378,-0.0238 c 0,0 -0.30015,-0.0175 -0.36119,-0.28389 -0.0775,-0.33801 -0.0339,-0.50614 0.21313,-0.81588 l 3.61019,-6.14308 4.42863,0 -5.52591,5.08836 3.25421,0.004 -5.37721,5.51257 2.06059,0 0,0 0,0 z"
       style="fill:url(#linearGradient5218);fill-opacity:1;stroke:none;display:inline;enable-background:new" />
    <path
       inkscape:export-ydpi="90"
       inkscape:export-xdpi="90"
       inkscape:export-filename="/home/duffy/Desktop/comp.png"
       sodipodi:nodetypes="csccc"
       id="path5087"
       d="m 748.48324,227.64789 c -10.47332,0 -18.9734,8.50009 -18.9734,18.97342 0,7.51313 4.39444,13.98499 10.73337,17.05784 0,0 -4.01642,-26.94668 20.85858,-31.19668 -2.66199,-2.92494 -7.77137,-4.83458 -12.61855,-4.83458 z"
       style="opacity:0.32692339;fill:url(#radialGradient4889);fill-opacity:1;stroke:none;display:inline;enable-background:new" />
  </g>
</svg>
